<mxfile host="app.diagrams.net" modified="2023-08-19T14:45:27.842Z" agent="Mozilla/5.0 (Windows NT 10.0; Win64; x64) AppleWebKit/537.36 (KHTML, like Gecko) Chrome/115.0.0.0 Safari/537.36" etag="4iMPktOKKk34U9t3bSu0" version="21.6.8" type="github">
  <diagram name="第 1 页" id="uC3gpUOi-tycmmlxDhRR">
    <mxGraphModel dx="1221" dy="737" grid="1" gridSize="10" guides="1" tooltips="1" connect="1" arrows="1" fold="1" page="1" pageScale="1" pageWidth="827" pageHeight="1169" math="0" shadow="0">
      <root>
        <mxCell id="0" />
        <mxCell id="1" parent="0" />
        <mxCell id="zAmhP8PBEJzAqp6n99Y0-1" value="" style="rounded=0;whiteSpace=wrap;html=1;dashed=1;dashPattern=8 8;" vertex="1" parent="1">
          <mxGeometry x="20" y="660" width="780" height="80" as="geometry" />
        </mxCell>
        <mxCell id="zAmhP8PBEJzAqp6n99Y0-2" value="&lt;font style=&quot;font-size: 18px;&quot;&gt;&lt;b style=&quot;&quot;&gt;基础服务集群&lt;/b&gt;&lt;/font&gt;" style="text;html=1;strokeColor=none;fillColor=none;align=center;verticalAlign=middle;whiteSpace=wrap;rounded=0;" vertex="1" parent="1">
          <mxGeometry x="30" y="684" width="50" height="30" as="geometry" />
        </mxCell>
        <mxCell id="zAmhP8PBEJzAqp6n99Y0-3" value="&lt;font style=&quot;font-size: 14px;&quot;&gt;容器集群&lt;br&gt;Docker&lt;/font&gt;" style="rounded=0;whiteSpace=wrap;html=1;" vertex="1" parent="1">
          <mxGeometry x="90" y="684" width="90" height="32" as="geometry" />
        </mxCell>
        <mxCell id="zAmhP8PBEJzAqp6n99Y0-4" value="&lt;span style=&quot;font-size: 14px;&quot;&gt;容器管理&lt;br&gt;Kubernetes&lt;br&gt;&lt;/span&gt;" style="rounded=0;whiteSpace=wrap;html=1;" vertex="1" parent="1">
          <mxGeometry x="230" y="684" width="100" height="32" as="geometry" />
        </mxCell>
        <mxCell id="zAmhP8PBEJzAqp6n99Y0-5" value="&lt;span style=&quot;font-size: 14px;&quot;&gt;微服务治理&lt;br&gt;Dubbo+zookeeper&lt;br&gt;&lt;/span&gt;" style="rounded=0;whiteSpace=wrap;html=1;" vertex="1" parent="1">
          <mxGeometry x="380" y="684" width="130" height="32" as="geometry" />
        </mxCell>
        <mxCell id="zAmhP8PBEJzAqp6n99Y0-6" value="&lt;span style=&quot;font-size: 14px;&quot;&gt;redis集群&lt;br&gt;&lt;/span&gt;" style="rounded=0;whiteSpace=wrap;html=1;" vertex="1" parent="1">
          <mxGeometry x="550" y="684" width="90" height="32" as="geometry" />
        </mxCell>
        <mxCell id="zAmhP8PBEJzAqp6n99Y0-7" value="&lt;span style=&quot;font-size: 14px;&quot;&gt;MySQL集群&lt;br&gt;&lt;/span&gt;" style="rounded=0;whiteSpace=wrap;html=1;" vertex="1" parent="1">
          <mxGeometry x="670" y="684" width="100" height="32" as="geometry" />
        </mxCell>
        <mxCell id="zAmhP8PBEJzAqp6n99Y0-8" value="" style="rounded=0;whiteSpace=wrap;html=1;dashed=1;dashPattern=8 8;" vertex="1" parent="1">
          <mxGeometry x="20" y="560" width="780" height="80" as="geometry" />
        </mxCell>
        <mxCell id="zAmhP8PBEJzAqp6n99Y0-9" value="&lt;font style=&quot;font-size: 18px;&quot;&gt;&lt;b style=&quot;&quot;&gt;基础平台&lt;/b&gt;&lt;/font&gt;" style="text;html=1;strokeColor=none;fillColor=none;align=center;verticalAlign=middle;whiteSpace=wrap;rounded=0;" vertex="1" parent="1">
          <mxGeometry x="30" y="584" width="40" height="30" as="geometry" />
        </mxCell>
        <mxCell id="zAmhP8PBEJzAqp6n99Y0-10" value="&lt;span style=&quot;font-size: 14px;&quot;&gt;大数据平台&lt;/span&gt;" style="rounded=0;whiteSpace=wrap;html=1;" vertex="1" parent="1">
          <mxGeometry x="90" y="584" width="90" height="32" as="geometry" />
        </mxCell>
        <mxCell id="zAmhP8PBEJzAqp6n99Y0-11" value="&lt;span style=&quot;font-size: 14px;&quot;&gt;配置管理中心&lt;br&gt;&lt;/span&gt;" style="rounded=0;whiteSpace=wrap;html=1;" vertex="1" parent="1">
          <mxGeometry x="230" y="585" width="100" height="32" as="geometry" />
        </mxCell>
        <mxCell id="zAmhP8PBEJzAqp6n99Y0-12" value="&lt;span style=&quot;font-size: 14px;&quot;&gt;健康监测平台&lt;br&gt;&lt;/span&gt;" style="rounded=0;whiteSpace=wrap;html=1;" vertex="1" parent="1">
          <mxGeometry x="380" y="585" width="130" height="32" as="geometry" />
        </mxCell>
        <mxCell id="zAmhP8PBEJzAqp6n99Y0-13" value="&lt;span style=&quot;font-size: 14px;&quot;&gt;打包发布平台&lt;br&gt;&lt;/span&gt;" style="rounded=0;whiteSpace=wrap;html=1;" vertex="1" parent="1">
          <mxGeometry x="550" y="585" width="90" height="32" as="geometry" />
        </mxCell>
        <mxCell id="zAmhP8PBEJzAqp6n99Y0-14" value="&lt;span style=&quot;font-size: 14px;&quot;&gt;资源调度平台&lt;br&gt;&lt;/span&gt;" style="rounded=0;whiteSpace=wrap;html=1;" vertex="1" parent="1">
          <mxGeometry x="670" y="585" width="100" height="32" as="geometry" />
        </mxCell>
        <mxCell id="zAmhP8PBEJzAqp6n99Y0-22" value="" style="rounded=0;whiteSpace=wrap;html=1;dashed=1;dashPattern=8 8;" vertex="1" parent="1">
          <mxGeometry x="20" y="300" width="190" height="240" as="geometry" />
        </mxCell>
        <mxCell id="zAmhP8PBEJzAqp6n99Y0-23" value="&lt;font style=&quot;font-size: 18px;&quot;&gt;&lt;b style=&quot;&quot;&gt;API 网关&lt;/b&gt;&lt;/font&gt;" style="text;html=1;strokeColor=none;fillColor=none;align=center;verticalAlign=middle;whiteSpace=wrap;rounded=0;" vertex="1" parent="1">
          <mxGeometry x="77.5" y="300" width="75" height="30" as="geometry" />
        </mxCell>
        <mxCell id="zAmhP8PBEJzAqp6n99Y0-25" value="&lt;span style=&quot;font-size: 14px;&quot;&gt;资产接入网关&lt;/span&gt;" style="rounded=0;whiteSpace=wrap;html=1;" vertex="1" parent="1">
          <mxGeometry x="40" y="330" width="150" height="32" as="geometry" />
        </mxCell>
        <mxCell id="zAmhP8PBEJzAqp6n99Y0-26" value="&lt;span style=&quot;font-size: 14px;&quot;&gt;app应用接入网关&lt;/span&gt;" style="rounded=0;whiteSpace=wrap;html=1;" vertex="1" parent="1">
          <mxGeometry x="40" y="380" width="150" height="32" as="geometry" />
        </mxCell>
        <mxCell id="zAmhP8PBEJzAqp6n99Y0-27" value="&lt;span style=&quot;font-size: 14px;&quot;&gt;评级授信模型接入网关&lt;/span&gt;" style="rounded=0;whiteSpace=wrap;html=1;" vertex="1" parent="1">
          <mxGeometry x="40" y="430" width="150" height="40" as="geometry" />
        </mxCell>
        <mxCell id="zAmhP8PBEJzAqp6n99Y0-29" value="&lt;span style=&quot;font-size: 14px;&quot;&gt;风险/征信数据接入网关&lt;/span&gt;" style="rounded=0;whiteSpace=wrap;html=1;" vertex="1" parent="1">
          <mxGeometry x="40" y="490" width="150" height="40" as="geometry" />
        </mxCell>
        <mxCell id="zAmhP8PBEJzAqp6n99Y0-30" value="" style="rounded=0;whiteSpace=wrap;html=1;dashed=1;dashPattern=8 8;" vertex="1" parent="1">
          <mxGeometry x="20" y="50" width="190" height="230" as="geometry" />
        </mxCell>
        <mxCell id="zAmhP8PBEJzAqp6n99Y0-32" value="&lt;font style=&quot;font-size: 18px;&quot;&gt;&lt;b style=&quot;&quot;&gt;web服务&lt;/b&gt;&lt;/font&gt;" style="text;html=1;strokeColor=none;fillColor=none;align=center;verticalAlign=middle;whiteSpace=wrap;rounded=0;" vertex="1" parent="1">
          <mxGeometry x="77.5" y="50" width="75" height="30" as="geometry" />
        </mxCell>
        <mxCell id="zAmhP8PBEJzAqp6n99Y0-33" value="&lt;span style=&quot;font-size: 14px;&quot;&gt;小额信贷交易平台&lt;/span&gt;" style="rounded=0;whiteSpace=wrap;html=1;" vertex="1" parent="1">
          <mxGeometry x="40" y="80" width="150" height="32" as="geometry" />
        </mxCell>
        <mxCell id="zAmhP8PBEJzAqp6n99Y0-34" value="&lt;span style=&quot;font-size: 14px;&quot;&gt;风控管理平台&lt;/span&gt;" style="rounded=0;whiteSpace=wrap;html=1;" vertex="1" parent="1">
          <mxGeometry x="40" y="130" width="150" height="32" as="geometry" />
        </mxCell>
        <mxCell id="zAmhP8PBEJzAqp6n99Y0-35" value="&lt;span style=&quot;font-size: 14px;&quot;&gt;统一授权认证&lt;/span&gt;" style="rounded=0;whiteSpace=wrap;html=1;" vertex="1" parent="1">
          <mxGeometry x="40" y="180" width="150" height="32" as="geometry" />
        </mxCell>
        <mxCell id="zAmhP8PBEJzAqp6n99Y0-36" value="&lt;span style=&quot;font-size: 14px;&quot;&gt;web应用&lt;/span&gt;" style="rounded=0;whiteSpace=wrap;html=1;" vertex="1" parent="1">
          <mxGeometry x="40" y="230" width="150" height="32" as="geometry" />
        </mxCell>
        <mxCell id="zAmhP8PBEJzAqp6n99Y0-37" value="" style="rounded=0;whiteSpace=wrap;html=1;dashed=1;dashPattern=8 8;" vertex="1" parent="1">
          <mxGeometry x="270" y="50" width="530" height="230" as="geometry" />
        </mxCell>
        <mxCell id="zAmhP8PBEJzAqp6n99Y0-38" value="" style="rounded=0;whiteSpace=wrap;html=1;dashed=1;dashPattern=8 8;" vertex="1" parent="1">
          <mxGeometry x="270" y="305" width="530" height="230" as="geometry" />
        </mxCell>
        <mxCell id="zAmhP8PBEJzAqp6n99Y0-39" value="" style="rounded=0;whiteSpace=wrap;html=1;dashed=1;dashPattern=8 8;" vertex="1" parent="1">
          <mxGeometry x="315" y="120" width="75" height="340" as="geometry" />
        </mxCell>
        <mxCell id="zAmhP8PBEJzAqp6n99Y0-40" value="&lt;font style=&quot;font-size: 18px;&quot;&gt;&lt;b style=&quot;&quot;&gt;统一认证授权&lt;/b&gt;&lt;/font&gt;" style="text;html=1;strokeColor=none;fillColor=none;align=center;verticalAlign=middle;whiteSpace=wrap;rounded=0;" vertex="1" parent="1">
          <mxGeometry x="338.75" y="240" width="27.5" height="90" as="geometry" />
        </mxCell>
        <mxCell id="zAmhP8PBEJzAqp6n99Y0-41" value="" style="endArrow=classic;html=1;rounded=0;exitX=1;exitY=0.5;exitDx=0;exitDy=0;entryX=0;entryY=0.5;entryDx=0;entryDy=0;" edge="1" parent="1" source="zAmhP8PBEJzAqp6n99Y0-30" target="zAmhP8PBEJzAqp6n99Y0-37">
          <mxGeometry width="50" height="50" relative="1" as="geometry">
            <mxPoint x="230" y="200" as="sourcePoint" />
            <mxPoint x="270" y="150" as="targetPoint" />
          </mxGeometry>
        </mxCell>
        <mxCell id="zAmhP8PBEJzAqp6n99Y0-42" value="" style="endArrow=classic;html=1;rounded=0;exitX=1;exitY=0.5;exitDx=0;exitDy=0;entryX=0;entryY=0.5;entryDx=0;entryDy=0;edgeStyle=orthogonalEdgeStyle;" edge="1" parent="1" source="zAmhP8PBEJzAqp6n99Y0-22" target="zAmhP8PBEJzAqp6n99Y0-37">
          <mxGeometry width="50" height="50" relative="1" as="geometry">
            <mxPoint x="230" y="440" as="sourcePoint" />
            <mxPoint x="280" y="390" as="targetPoint" />
          </mxGeometry>
        </mxCell>
        <mxCell id="zAmhP8PBEJzAqp6n99Y0-43" value="" style="rounded=0;whiteSpace=wrap;html=1;dashed=1;dashPattern=8 8;" vertex="1" parent="1">
          <mxGeometry x="405" y="75" width="380" height="185" as="geometry" />
        </mxCell>
        <mxCell id="zAmhP8PBEJzAqp6n99Y0-44" value="&lt;font style=&quot;font-size: 18px;&quot;&gt;&lt;b style=&quot;&quot;&gt;信贷交易服务集群&lt;/b&gt;&lt;/font&gt;" style="text;html=1;strokeColor=none;fillColor=none;align=center;verticalAlign=middle;whiteSpace=wrap;rounded=0;" vertex="1" parent="1">
          <mxGeometry x="519.38" y="75" width="151.25" height="30" as="geometry" />
        </mxCell>
        <mxCell id="zAmhP8PBEJzAqp6n99Y0-45" value="&lt;span style=&quot;font-size: 14px;&quot;&gt;用户管理&lt;/span&gt;" style="rounded=0;whiteSpace=wrap;html=1;" vertex="1" parent="1">
          <mxGeometry x="414" y="105" width="96" height="32" as="geometry" />
        </mxCell>
        <mxCell id="zAmhP8PBEJzAqp6n99Y0-46" value="&lt;span style=&quot;font-size: 14px;&quot;&gt;开户&lt;/span&gt;" style="rounded=0;whiteSpace=wrap;html=1;" vertex="1" parent="1">
          <mxGeometry x="542" y="105" width="98" height="32" as="geometry" />
        </mxCell>
        <mxCell id="zAmhP8PBEJzAqp6n99Y0-47" value="&lt;span style=&quot;font-size: 14px;&quot;&gt;授信额度审批&lt;/span&gt;" style="rounded=0;whiteSpace=wrap;html=1;" vertex="1" parent="1">
          <mxGeometry x="414" y="162" width="96" height="32" as="geometry" />
        </mxCell>
        <mxCell id="zAmhP8PBEJzAqp6n99Y0-48" value="&lt;span style=&quot;font-size: 14px;&quot;&gt;借款试算&lt;/span&gt;" style="rounded=0;whiteSpace=wrap;html=1;" vertex="1" parent="1">
          <mxGeometry x="672" y="105" width="98" height="32" as="geometry" />
        </mxCell>
        <mxCell id="zAmhP8PBEJzAqp6n99Y0-49" value="&lt;span style=&quot;font-size: 14px;&quot;&gt;放款处理&lt;/span&gt;" style="rounded=0;whiteSpace=wrap;html=1;" vertex="1" parent="1">
          <mxGeometry x="542" y="162" width="98" height="32" as="geometry" />
        </mxCell>
        <mxCell id="zAmhP8PBEJzAqp6n99Y0-50" value="&lt;span style=&quot;font-size: 14px;&quot;&gt;还款试算&lt;/span&gt;" style="rounded=0;whiteSpace=wrap;html=1;" vertex="1" parent="1">
          <mxGeometry x="672" y="162" width="98" height="32" as="geometry" />
        </mxCell>
        <mxCell id="zAmhP8PBEJzAqp6n99Y0-51" value="&lt;span style=&quot;font-size: 14px;&quot;&gt;还款处理&lt;/span&gt;" style="rounded=0;whiteSpace=wrap;html=1;" vertex="1" parent="1">
          <mxGeometry x="414" y="220" width="98" height="32" as="geometry" />
        </mxCell>
        <mxCell id="zAmhP8PBEJzAqp6n99Y0-52" value="&lt;span style=&quot;font-size: 14px;&quot;&gt;上报管理&lt;/span&gt;" style="rounded=0;whiteSpace=wrap;html=1;" vertex="1" parent="1">
          <mxGeometry x="542" y="220" width="98" height="32" as="geometry" />
        </mxCell>
        <mxCell id="zAmhP8PBEJzAqp6n99Y0-53" value="&lt;span style=&quot;font-size: 14px;&quot;&gt;日志管理&lt;/span&gt;" style="rounded=0;whiteSpace=wrap;html=1;" vertex="1" parent="1">
          <mxGeometry x="672" y="220" width="98" height="32" as="geometry" />
        </mxCell>
        <mxCell id="zAmhP8PBEJzAqp6n99Y0-54" value="" style="rounded=0;whiteSpace=wrap;html=1;dashed=1;dashPattern=8 8;" vertex="1" parent="1">
          <mxGeometry x="401" y="330" width="380" height="130" as="geometry" />
        </mxCell>
        <mxCell id="zAmhP8PBEJzAqp6n99Y0-55" value="&lt;font style=&quot;font-size: 18px;&quot;&gt;&lt;b style=&quot;&quot;&gt;风控服务集群&lt;/b&gt;&lt;/font&gt;" style="text;html=1;strokeColor=none;fillColor=none;align=center;verticalAlign=middle;whiteSpace=wrap;rounded=0;" vertex="1" parent="1">
          <mxGeometry x="528.6800000000001" y="332" width="124.63" height="30" as="geometry" />
        </mxCell>
        <mxCell id="zAmhP8PBEJzAqp6n99Y0-56" value="" style="endArrow=classic;html=1;rounded=0;entryX=0.487;entryY=1;entryDx=0;entryDy=0;entryPerimeter=0;" edge="1" parent="1" target="zAmhP8PBEJzAqp6n99Y0-43">
          <mxGeometry width="50" height="50" relative="1" as="geometry">
            <mxPoint x="590" y="330" as="sourcePoint" />
            <mxPoint x="540" y="270" as="targetPoint" />
          </mxGeometry>
        </mxCell>
        <mxCell id="zAmhP8PBEJzAqp6n99Y0-57" value="&lt;span style=&quot;font-size: 14px;&quot;&gt;评级授信模型&lt;br&gt;&lt;/span&gt;" style="rounded=0;whiteSpace=wrap;html=1;" vertex="1" parent="1">
          <mxGeometry x="430" y="490" width="130" height="32" as="geometry" />
        </mxCell>
        <mxCell id="zAmhP8PBEJzAqp6n99Y0-58" value="" style="endArrow=classic;html=1;rounded=0;exitX=0.5;exitY=0;exitDx=0;exitDy=0;entryX=0.25;entryY=1;entryDx=0;entryDy=0;" edge="1" parent="1" source="zAmhP8PBEJzAqp6n99Y0-57" target="zAmhP8PBEJzAqp6n99Y0-54">
          <mxGeometry width="50" height="50" relative="1" as="geometry">
            <mxPoint x="460" y="470" as="sourcePoint" />
            <mxPoint x="510" y="420" as="targetPoint" />
          </mxGeometry>
        </mxCell>
        <mxCell id="zAmhP8PBEJzAqp6n99Y0-59" value="&lt;span style=&quot;font-size: 14px;&quot;&gt;基础信息检测&lt;/span&gt;" style="rounded=0;whiteSpace=wrap;html=1;" vertex="1" parent="1">
          <mxGeometry x="414" y="362" width="96" height="32" as="geometry" />
        </mxCell>
        <mxCell id="zAmhP8PBEJzAqp6n99Y0-60" value="&lt;span style=&quot;font-size: 14px;&quot;&gt;反欺诈审批&lt;/span&gt;" style="rounded=0;whiteSpace=wrap;html=1;" vertex="1" parent="1">
          <mxGeometry x="543" y="362" width="96" height="32" as="geometry" />
        </mxCell>
        <mxCell id="zAmhP8PBEJzAqp6n99Y0-61" value="&lt;span style=&quot;font-size: 14px;&quot;&gt;信用风险审批&lt;/span&gt;" style="rounded=0;whiteSpace=wrap;html=1;" vertex="1" parent="1">
          <mxGeometry x="674" y="362" width="96" height="32" as="geometry" />
        </mxCell>
        <mxCell id="zAmhP8PBEJzAqp6n99Y0-62" value="&lt;span style=&quot;font-size: 14px;&quot;&gt;信用等级评估&lt;/span&gt;" style="rounded=0;whiteSpace=wrap;html=1;" vertex="1" parent="1">
          <mxGeometry x="416" y="420" width="96" height="32" as="geometry" />
        </mxCell>
        <mxCell id="zAmhP8PBEJzAqp6n99Y0-63" value="&lt;span style=&quot;font-size: 14px;&quot;&gt;授信模型监测（贷后）&lt;/span&gt;" style="rounded=0;whiteSpace=wrap;html=1;" vertex="1" parent="1">
          <mxGeometry x="542" y="420" width="96" height="32" as="geometry" />
        </mxCell>
      </root>
    </mxGraphModel>
  </diagram>
</mxfile>
